<?xml version="1.0" encoding="utf-8"?>
<!-- Generator: Adobe Illustrator 27.8.1, SVG Export Plug-In . SVG Version: 6.00 Build 0)  -->
<svg version="1.1" id="Layer_1" xmlns="http://www.w3.org/2000/svg" xmlns:xlink="http://www.w3.org/1999/xlink" x="0px" y="0px"
	 viewBox="0 0 589.8 589.8" style="enable-background:new 0 0 589.8 589.8;" xml:space="preserve">
<style type="text/css">
	.st0{fill:#F3D0A1;}
</style>
<g>
	<g>
		<path class="st0" d="M201.8,151.3c0,0,5.1,16.9,43.3,42.1c30.9,20.4,41.1,34.7,49.7,60.5c8.6-25.8,18.8-40.1,49.7-60.5
			c38.2-25.2,43.3-42.1,43.3-42.1s-24.5-52.3-93-52.3C226.1,99.1,201.8,151.3,201.8,151.3z M294.6,112.5c49.1,0,73.6,38.6,73.6,38.6
			s-33.8,38.9-73.3,38.9c0,0-0.2,0-0.1,0c0,0,0.1,0,0.1,0c-39.8,0-73.6-38.6-73.6-38.6S245.8,112.5,294.6,112.5z"/>
		<path class="st0" d="M294.6,184.8c18.5,0,33.8-15,33.8-33.1c0-18.5-15-33.5-33.8-33.5c-18.5,0-33.8,15-33.8,33.5
			S275.8,184.8,294.6,184.8z M287.2,132.2c6.4,0,11.5,5.4,11.5,12.1c0,6.7-5.1,12.1-11.5,12.1c-6.4,0-11.5-5.4-11.5-12.1
			S280.9,132.2,287.2,132.2z"/>
		<path class="st0" d="M153.7,138.9c37.9-32.5,87-52.3,140.8-52.3c53.8,0,103.2,19.8,141.1,52.6c5.4-4.8,10.2-9.9,14-14.7
			c-14-17.2-18.8-37.3-18.8-47.8c-11.2,8.9-33.1,9.9-57.3,2.5c-2.2-1-4.8-1.6-7-2.2c-25.5-9.2-52.9-27.7-72-55.8
			c-19.4,28.7-47.2,47.2-73.3,56.4c-1.3,0.3-2.5,1-3.8,1.3c-25.2,8-48.1,7.3-59.6-1.9c0.3,10.5-4.8,30.3-18.5,47.5
			C143.9,129,148.6,133.8,153.7,138.9z"/>
		<path class="st0" d="M510.3,302c0,119.2-96.5,215.7-215.7,215.7S78.9,421.2,78.9,302c0-1.3,0-2.2,0-3.5
			c-6.7-6.7-12.7-14-17.8-22.3c-1.3,12.4-2.2,24.5-2.2,37c0,187.7,236.1,255.2,236.1,255.2S531,495.4,531,313.2
			c0-12.4-1-24.5-2.5-36.6c-5.4,8.3-11.5,15.6-18.2,22.3C510.3,299.8,510.3,301.1,510.3,302z"/>
		<path class="st0" d="M193.2,349.8c0,0-54.8,11.8-54.8,49.7c0,65.6,95.3,94,95.3,94s55.1-17.8,55.1-159.3
			c-0.3-62.1-10.2-96.2-48.4-121.1C198.7,186.4,119,142.4,116.1,100C-56.5,279.7,193.2,349.8,193.2,349.8z"/>
		<path class="st0" d="M349.4,213.2c-38.2,24.9-48.1,58.9-48.4,121.1c0,141.5,55.1,159.3,55.1,159.3s95.3-28.4,95.3-94
			c0-37.9-54.8-49.7-54.8-49.7s249.8-70.1,77.1-249.8C470.8,142.4,391.1,186.4,349.4,213.2z"/>
	</g>
</g>
</svg>
